<svg id="logo" xmlns="http://www.w3.org/2000/svg" width="69.643" height="41.584" viewBox="0 0 69.643 41.584">
  <path id="Caminho_1" data-name="Caminho 1" d="M526.015,378.752l32.226,40.263a1.526,1.526,0,0,0,1.192.574h11.682a.46.46,0,0,0,.358-.748l-32.226-40.263a1.527,1.527,0,0,0-1.192-.574H526.372A.46.46,0,0,0,526.015,378.752Z" transform="translate(-508.898 -378.004)" fill="#fff"/>
  <path id="Caminho_2" data-name="Caminho 2" d="M653.134,378.09h11.911a1.526,1.526,0,0,1,1.189.571l19.112,23.727a1.535,1.535,0,0,1,.339.969l-.068,15.023a.458.458,0,0,1-.815.286l-32.024-39.828A.46.46,0,0,1,653.134,378.09Z" transform="translate(-616.042 -378.077)" fill="#fff"/>
  <path id="Caminho_3" data-name="Caminho 3" d="M794.387,393.422l-12.04-14.587a.46.46,0,0,1,.359-.746h12.04a.459.459,0,0,1,.458.46v14.587A.458.458,0,0,1,794.387,393.422Z" transform="translate(-725.561 -378.077)" fill="#fff"/>
  <path id="Caminho_4" data-name="Caminho 4" d="M434.335,388.012l-7.48-9.315a1.623,1.623,0,0,0-1.266-.607h-9.124a.487.487,0,0,0-.487.487v9.74a.487.487,0,0,0,.487.487h17.491A.487.487,0,0,0,434.335,388.012Z" transform="translate(-415.977 -378.077)" fill="#fff"/>
  <path id="Caminho_5" data-name="Caminho 5" d="M416.465,478.788h21.469a1.624,1.624,0,0,1,1.258.6l7.468,9.16a.487.487,0,0,1-.377.795H416.465a.487.487,0,0,1-.487-.487v-9.578A.487.487,0,0,1,416.465,478.788Z" transform="translate(-415.977 -463.19)" fill="#fff"/>
  <path id="Caminho_6" data-name="Caminho 6" d="M416.459,589.075h42.006a.487.487,0,0,0,.38-.791l-7.321-9.151a1.623,1.623,0,0,0-1.268-.609h-33.8a.487.487,0,0,0-.487.487v9.578A.487.487,0,0,0,416.459,589.075Z" transform="translate(-415.972 -547.49)" fill="#fff"/>
</svg>
